<?xml version="1.0" standalone="no"?>
<!DOCTYPE svg PUBLIC "-//W3C//DTD SVG 20010904//EN"
 "http://www.w3.org/TR/2001/REC-SVG-20010904/DTD/svg10.dtd">
<svg version="1.0" xmlns="http://www.w3.org/2000/svg"
 width="152.000000pt" height="152.000000pt" viewBox="0 0 152.000000 152.000000"
 preserveAspectRatio="xMidYMid meet">

<g transform="translate(0.000000,152.000000) scale(0.100000,-0.100000)"
fill="#000000" stroke="none">
<path d="M605 1486 c-154 -36 -252 -92 -366 -205 -95 -95 -146 -177 -187 -299
-23 -69 -26 -93 -26 -222 0 -129 3 -153 26 -222 41 -122 92 -204 187 -299 95
-95 177 -146 299 -187 69 -23 93 -26 222 -26 129 0 153 3 222 26 122 41 204
92 299 187 95 95 146 177 187 299 23 69 26 93 26 222 0 129 -3 153 -26 222
-41 122 -92 204 -187 299 -148 147 -289 209 -496 215 -80 2 -140 -1 -180 -10z
m340 -41 c241 -66 439 -268 502 -510 24 -93 24 -255 0 -350 -63 -244 -261
-444 -507 -511 -90 -24 -263 -25 -355 -1 -245 63 -444 261 -511 507 -24 89
-24 271 0 360 71 261 278 456 546 515 80 18 240 13 325 -10z"/>
<path d="M370 1263 c-27 -10 -40 -36 -40 -83 0 -37 -4 -47 -22 -55 -22 -10
-23 -16 -25 -137 -1 -99 1 -129 13 -139 8 -7 14 -30 14 -59 0 -40 -4 -50 -25
-64 -22 -14 -25 -24 -25 -71 0 -44 4 -57 20 -67 17 -11 20 -24 20 -90 0 -67 3
-80 20 -90 13 -8 20 -24 20 -44 0 -17 6 -37 14 -44 8 -6 16 -24 18 -38 2 -22
8 -27 32 -27 16 0 32 7 36 15 4 8 12 25 18 37 7 13 12 39 12 58 0 24 5 35 15
35 23 0 35 34 35 104 0 53 4 70 20 86 14 14 20 33 20 65 0 44 -24 85 -50 85
-18 0 -12 92 7 105 15 11 18 32 19 135 1 125 -6 150 -42 150 -10 0 -14 14 -14
54 0 45 -4 58 -22 70 -22 16 -59 19 -88 9z m88 -80 l3 -53 -50 0 -51 0 0 48
c0 27 3 52 7 56 4 4 25 6 48 4 l40 -3 3 -52z m51 -86 c21 -26 -9 -37 -105 -37
-93 0 -111 7 -100 35 7 20 188 22 205 2z m4 -71 c3 -8 3 -17 0 -20 -4 -3 -53
-6 -110 -6 -79 0 -103 3 -103 13 0 24 12 27 111 27 74 0 98 -3 102 -14z m2
-76 c0 -12 -18 -15 -105 -15 -93 0 -105 2 -108 18 -3 16 5 17 105 15 88 -2
108 -6 108 -18z m-6 -53 c21 -26 -9 -37 -105 -37 -93 0 -111 7 -100 35 7 20
188 22 205 2z m-29 -107 l0 -50 -75 0 -75 0 0 50 0 50 75 0 75 0 0 -50z m45
-135 l0 -50 -120 0 -120 0 -3 39 c-6 67 -6 67 125 64 l118 -3 0 -50z m-35
-155 l0 -81 -82 3 -83 3 -3 78 -3 77 86 0 85 0 0 -80z m-40 -130 c0 -28 -3
-30 -35 -30 -19 0 -38 0 -42 -1 -11 0 -16 29 -9 47 3 9 20 14 46 14 38 0 40
-2 40 -30z m-30 -75 c0 -8 -7 -15 -15 -15 -8 0 -15 7 -15 15 0 8 7 15 15 15 8
0 15 -7 15 -15z"/>
<path d="M330 660 c0 -16 5 -30 10 -30 6 0 10 14 10 30 0 17 -4 30 -10 30 -5
0 -10 -13 -10 -30z"/>
<path d="M400 655 c0 -22 4 -34 10 -30 6 3 10 17 10 30 0 13 -4 27 -10 30 -6
4 -10 -8 -10 -30z"/>
<path d="M464 677 c-7 -20 -2 -47 11 -50 14 -3 19 43 6 56 -7 7 -12 6 -17 -6z"/>
<path d="M347 534 c-18 -19 -2 -25 58 -22 36 2 66 8 68 13 2 11 -115 20 -126
9z"/>
<path d="M340 470 c0 -6 28 -10 65 -10 37 0 65 4 65 10 0 6 -28 10 -65 10 -37
0 -65 -4 -65 -10z"/>
<path d="M1038 1234 c-50 -27 -63 -90 -31 -145 24 -40 9 -79 -39 -101 -45 -22
-60 -47 -56 -96 3 -37 4 -37 51 -40 44 -3 47 -5 47 -30 0 -16 -8 -32 -20 -40
-11 -7 -20 -21 -20 -32 0 -11 9 -25 20 -32 11 -7 20 -20 20 -29 0 -9 -9 -19
-20 -22 -13 -3 -20 -14 -20 -31 0 -15 8 -30 20 -36 26 -14 26 -36 0 -50 -12
-6 -20 -21 -20 -36 0 -17 7 -28 20 -31 24 -6 26 -39 5 -67 -21 -27 -19 -75 5
-113 42 -69 145 -59 183 18 16 34 16 40 2 80 -21 62 -19 111 5 132 11 9 20 21
20 27 0 5 -9 19 -20 30 -11 11 -20 26 -20 33 0 7 9 18 20 25 26 16 26 38 0 54
-11 7 -20 20 -20 28 0 9 9 23 20 33 11 9 20 21 20 27 0 5 -9 19 -20 30 -11 11
-20 22 -20 25 0 3 20 5 45 5 l45 0 0 49 c0 42 -4 53 -26 70 -15 12 -33 21 -40
21 -7 0 -21 14 -30 31 -15 30 -15 34 6 76 27 54 20 93 -22 128 -33 28 -70 31
-110 9z m105 -31 c21 -20 23 -86 2 -103 -17 -14 -20 -62 -5 -91 10 -18 7 -19
-54 -19 l-65 0 15 28 c19 36 18 49 -6 79 -62 78 39 172 113 106z m75 -249 c17
-12 22 -24 20 -47 l-3 -32 -150 0 c-165 0 -151 -6 -146 60 2 25 40 34 151 34
81 1 111 -3 128 -15z m-78 -117 c0 -7 -20 -18 -45 -25 -62 -16 -65 -16 -65 13
0 24 3 25 55 25 38 0 55 -4 55 -13z m38 -44 c-4 -19 -167 -67 -182 -52 -15 13
-5 19 86 44 102 29 100 29 96 8z m-38 -68 c0 -9 -20 -20 -52 -30 -63 -18 -58
-19 -58 4 0 13 11 21 43 28 60 15 67 15 67 -2z m40 -48 c0 -9 -31 -22 -82 -36
-95 -24 -111 -26 -106 -9 4 12 134 56 171 57 9 1 17 -5 17 -12z m-40 -66 c0
-14 -12 -22 -44 -30 -58 -14 -66 -14 -66 4 0 8 17 19 43 25 23 6 47 13 52 15
6 2 11 4 13 4 1 1 2 -7 2 -18z m35 -60 c-19 -16 -169 -51 -179 -41 -14 14 -6
19 85 44 77 21 119 20 94 -3z m-35 -63 c0 -21 -5 -23 -55 -23 -63 0 -67 14 -9
32 56 17 64 16 64 -9z m-1 -64 c40 -33 43 -83 6 -119 -73 -74 -189 33 -123
113 31 37 77 40 117 6z"/>
<path d="M1058 1189 c-21 -12 -24 -59 -6 -77 18 -18 53 -14 74 9 17 19 17 23
3 47 -16 29 -44 38 -71 21z m52 -39 c0 -23 -13 -32 -34 -24 -19 7 -21 25 -5
41 16 16 39 5 39 -17z"/>
<path d="M980 920 c0 -5 18 -10 40 -10 22 0 40 5 40 10 0 6 -18 10 -40 10 -22
0 -40 -4 -40 -10z"/>
<path d="M1110 920 c0 -5 18 -10 40 -10 22 0 40 5 40 10 0 6 -18 10 -40 10
-22 0 -40 -4 -40 -10z"/>
<path d="M1060 390 c-24 -24 -25 -34 -4 -54 29 -29 74 -13 74 25 0 19 -25 49
-41 49 -5 0 -18 -9 -29 -20z m45 -30 c0 -22 -29 -18 -33 3 -3 14 1 18 15 15
10 -2 18 -10 18 -18z"/>
<path d="M690 1100 c0 -23 -10 -26 -28 -8 -9 9 -19 5 -42 -17 -20 -19 -27 -32
-20 -39 15 -15 12 -23 -10 -29 -16 -4 -20 -14 -20 -46 0 -34 3 -41 20 -41 23
0 26 -10 8 -28 -10 -10 -5 -19 20 -44 25 -25 34 -30 44 -20 18 18 28 15 28 -8
0 -17 7 -20 41 -20 32 0 42 4 46 20 6 22 14 25 29 10 7 -7 20 0 39 20 22 23
26 33 17 42 -18 18 -15 28 8 28 17 0 20 7 20 45 0 38 -3 45 -20 45 -18 0 -19
3 -8 20 11 17 9 24 -15 47 -23 24 -30 26 -47 15 -17 -11 -20 -10 -20 8 0 17
-7 20 -45 20 -38 0 -45 -3 -45 -20z m60 -15 c0 -21 34 -37 48 -23 17 17 46
-10 31 -28 -13 -16 5 -54 26 -54 8 0 15 -9 15 -20 0 -13 -7 -20 -19 -20 -23 0
-35 -28 -20 -46 16 -20 -8 -49 -27 -33 -19 15 -54 1 -54 -22 0 -12 -7 -19 -20
-19 -13 0 -20 7 -20 19 0 23 -35 37 -54 22 -19 -16 -43 13 -27 33 15 18 3 46
-20 46 -12 0 -19 7 -19 20 0 11 6 20 14 20 25 0 41 29 28 50 -14 23 11 51 30
32 14 -14 48 2 48 23 0 8 9 15 20 15 11 0 20 -7 20 -15z"/>
<path d="M697 1002 c-20 -22 -22 -63 -5 -80 39 -39 112 12 87 60 -22 42 -55
50 -82 20z m58 -42 c0 -18 -6 -26 -23 -28 -24 -4 -38 18 -28 44 3 9 15 14 28
12 17 -2 23 -10 23 -28z"/>
<path d="M690 700 c0 -23 -10 -26 -28 -8 -10 10 -19 5 -44 -20 -25 -25 -30
-34 -20 -44 18 -18 15 -28 -8 -28 -17 0 -20 -7 -20 -41 0 -32 4 -42 20 -46 15
-4 17 -9 10 -23 -13 -24 44 -80 62 -62 18 18 28 15 28 -8 0 -17 7 -20 41 -20
32 0 42 4 46 19 4 17 8 18 24 8 16 -10 23 -7 46 16 24 23 26 30 15 47 -11 17
-10 20 8 20 17 0 20 7 20 45 0 38 -3 45 -20 45 -23 0 -26 10 -8 28 18 18 -38
75 -62 62 -14 -7 -19 -5 -23 10 -4 16 -14 20 -46 20 -34 0 -41 -3 -41 -20z
m60 -19 c0 -23 35 -37 54 -22 19 16 43 -13 27 -33 -15 -18 -3 -46 20 -46 12 0
19 -7 19 -20 0 -11 -7 -20 -15 -20 -21 0 -39 -38 -26 -54 15 -18 -14 -45 -31
-28 -14 14 -48 -2 -48 -23 0 -8 -9 -15 -20 -15 -11 0 -20 7 -20 15 0 21 -34
37 -48 23 -19 -19 -44 9 -30 32 13 21 -3 50 -28 50 -8 0 -14 9 -14 20 0 13 7
20 19 20 24 0 35 28 20 47 -10 11 -9 18 5 31 14 14 18 15 25 3 12 -19 51 -4
51 20 0 12 7 19 20 19 13 0 20 -7 20 -19z"/>
<path d="M692 598 c-21 -21 -14 -66 13 -84 30 -20 58 -11 74 22 9 22 9 31 -4
50 -17 26 -62 33 -83 12z m63 -38 c0 -20 -5 -25 -25 -25 -28 0 -41 32 -18 46
23 15 43 5 43 -21z"/>
</g>
</svg>
