<?xml version="1.0" standalone="no"?>
<!DOCTYPE svg PUBLIC "-//W3C//DTD SVG 20010904//EN"
 "http://www.w3.org/TR/2001/REC-SVG-20010904/DTD/svg10.dtd">
<svg version="1.0" xmlns="http://www.w3.org/2000/svg"
 width="108.000000pt" height="100.000000pt" viewBox="0 0 108.000000 100.000000"
 preserveAspectRatio="xMidYMid meet">

<g transform="translate(0.000000,100.000000) scale(0.100000,-0.100000)"
fill="#000000" stroke="none">
<path d="M144 976 c-59 -27 -116 -90 -132 -145 -15 -50 -15 -312 0 -362 15
-51 69 -114 122 -142 37 -20 59 -22 214 -25 l174 -4 149 -145 149 -146 0 145
0 145 45 6 c88 13 157 64 194 147 18 39 21 66 21 195 0 83 -5 168 -11 190 -14
53 -99 136 -155 153 -29 8 -141 12 -380 12 -335 0 -340 0 -390 -24z"/>
</g>
</svg>
