<?xml version="1.0" standalone="no"?>
<!DOCTYPE svg PUBLIC "-//W3C//DTD SVG 20010904//EN"
 "http://www.w3.org/TR/2001/REC-SVG-20010904/DTD/svg10.dtd">
<svg version="1.0" xmlns="http://www.w3.org/2000/svg"
 width="738.000000pt" height="606.000000pt" viewBox="0 0 738.000000 606.000000"
 preserveAspectRatio="xMidYMid meet">

<g transform="translate(0.000000,606.000000) scale(0.100000,-0.100000)"
fill="#000000" stroke="none">
<path d="M1771 5460 c-275 -78 -468 -314 -488 -596 -22 -315 200 -619 500
-685 l57 -12 0 -967 0 -968 -67 -16 c-182 -46 -350 -188 -431 -363 -150 -327
-12 -713 313 -874 319 -158 703 -31 872 287 56 107 76 186 75 309 0 121 -19
202 -73 306 -88 170 -254 300 -431 339 l-58 13 0 449 0 448 750 0 750 0 0
-449 0 -448 -65 -16 c-234 -58 -419 -245 -481 -489 -25 -95 -16 -270 19 -366
76 -217 250 -375 473 -432 236 -61 505 30 664 223 55 66 125 214 141 295 15
80 7 250 -16 317 -47 137 -131 259 -231 335 -69 52 -181 106 -250 120 l-54 11
0 450 0 449 800 0 c680 0 806 2 836 15 64 26 64 28 64 555 0 421 2 470 16 470
39 0 174 55 236 96 76 51 166 145 209 219 16 28 41 86 55 130 116 364 -100
753 -472 849 -80 21 -238 21 -318 0 -103 -27 -224 -96 -299 -171 -146 -147
-202 -284 -200 -483 1 -123 29 -225 90 -329 78 -133 225 -249 369 -290 43 -12
85 -24 92 -26 9 -4 12 -96 12 -420 l0 -415 -745 0 -745 0 0 420 c0 360 2 420
14 420 42 0 179 55 241 97 134 90 221 204 272 358 23 68 27 97 26 195 0 96 -4
128 -26 195 -59 179 -179 319 -342 398 -101 50 -176 67 -290 67 -261 0 -484
-140 -597 -375 -92 -193 -89 -396 12 -594 80 -159 253 -294 423 -332 l57 -12
0 -419 0 -418 -745 0 -745 0 2 416 3 417 76 22 c214 62 387 230 456 442 20 62
25 99 26 183 1 192 -57 333 -192 473 -65 67 -91 86 -176 127 -55 27 -124 53
-153 59 -82 17 -237 12 -311 -9z m331 -199 c218 -75 346 -310 297 -543 -52
-246 -314 -414 -558 -357 -74 17 -171 71 -227 128 -103 103 -159 269 -135 404
23 130 119 270 231 335 107 63 268 76 392 33z m1648 13 c86 -19 171 -69 233
-137 200 -218 150 -567 -101 -717 -115 -68 -233 -86 -356 -54 -250 64 -405
323 -341 569 43 164 172 294 335 337 82 21 143 22 230 2z m1722 -4 c153 -47
271 -174 313 -337 81 -312 -198 -618 -522 -572 -143 20 -292 131 -353 261 -83
178 -53 378 78 520 62 67 117 102 200 129 79 25 202 25 284 -1z m-3384 -3251
c104 -36 216 -129 262 -219 97 -191 58 -428 -94 -568 -100 -92 -201 -127 -348
-120 -87 4 -106 9 -170 41 -165 81 -268 244 -268 422 0 318 319 547 618 444z
m1710 -5 c122 -46 200 -118 261 -244 35 -73 36 -77 36 -196 0 -119 0 -121 -38
-198 -51 -103 -125 -177 -226 -224 -67 -33 -86 -37 -173 -40 -117 -5 -203 18
-288 76 -69 47 -144 140 -171 212 -32 81 -37 235 -11 316 66 208 271 344 492
326 30 -3 83 -15 118 -28z"/>
</g>
</svg>
