<?xml version="1.0" standalone="no"?>
<!DOCTYPE svg PUBLIC "-//W3C//DTD SVG 20010904//EN"
 "http://www.w3.org/TR/2001/REC-SVG-20010904/DTD/svg10.dtd">
<svg version="1.0" xmlns="http://www.w3.org/2000/svg"
 width="125.000000pt" height="123.000000pt" viewBox="0 0 125.000000 123.000000"
 preserveAspectRatio="xMidYMid meet">

<g transform="translate(0.000000,123.000000) scale(0.100000,-0.100000)"
fill="#000000" stroke="none">
<path d="M400 969 c-129 -99 -241 -188 -248 -197 -10 -13 -12 -83 -10 -319 3
-287 4 -303 24 -329 11 -15 33 -37 48 -48 27 -20 39 -21 429 -21 384 0 404 1
436 20 18 11 42 36 52 55 18 32 19 58 17 340 l-3 305 -245 187 c-134 104 -249
188 -255 188 -5 0 -116 -82 -245 -181z m465 -79 l204 -155 0 -282 1 -282 -26
-20 c-23 -18 -41 -21 -115 -21 l-89 0 0 243 c0 176 -3 246 -12 255 -8 8 -64
12 -185 12 -160 0 -173 -1 -183 -19 -6 -12 -10 -112 -10 -256 l0 -237 -95 4
c-139 5 -129 -18 -133 318 l-3 279 208 160 c114 88 214 159 221 158 7 -1 105
-72 217 -157z m-105 -545 l0 -216 -112 3 -113 3 -3 213 -2 212 115 0 115 0 0
-215z"/>
</g>
</svg>
