<?xml version="1.0" standalone="no"?>
<!DOCTYPE svg PUBLIC "-//W3C//DTD SVG 20010904//EN"
 "http://www.w3.org/TR/2001/REC-SVG-20010904/DTD/svg10.dtd">
<svg version="1.0" xmlns="http://www.w3.org/2000/svg"
 width="240.000000pt" height="105.000000pt" viewBox="0 0 240.000000 105.000000"
 preserveAspectRatio="xMidYMid meet">

<g transform="translate(0.000000,105.000000) scale(0.100000,-0.100000)"
fill="#000000" stroke="none">
<path d="M1134 930 c-66 -13 -100 -31 -269 -141 -155 -102 -162 -105 -240
-116 -187 -27 -321 -92 -413 -202 -58 -70 -63 -94 -38 -189 17 -61 40 -102 60
-102 8 0 21 -11 30 -25 15 -23 23 -25 87 -25 66 0 74 -3 107 -31 48 -42 91
-59 152 -59 61 0 104 17 152 59 l36 31 450 0 450 0 33 -31 c45 -42 88 -59 149
-59 84 0 160 44 196 112 13 25 20 28 65 28 65 0 122 29 156 82 23 34 29 55 31
118 l4 77 -58 49 c-32 27 -96 85 -143 128 -195 179 -383 268 -626 296 -104 11
-312 11 -371 0z m439 -55 c185 -32 354 -117 495 -248 42 -40 110 -99 150 -131
66 -53 72 -61 72 -95 0 -61 -19 -108 -56 -140 -29 -26 -43 -31 -84 -31 l-50 0
0 35 c0 45 -19 91 -56 134 -85 101 -263 91 -338 -18 -31 -44 -47 -119 -36
-166 l8 -35 -428 -2 -427 -3 1 70 c1 60 -3 77 -27 118 -15 26 -47 60 -69 75
-36 24 -51 27 -119 27 -70 0 -82 -3 -121 -30 -28 -20 -53 -49 -71 -85 -25 -48
-28 -63 -23 -115 l5 -60 -46 1 c-38 1 -48 5 -54 23 -5 12 -17 21 -28 21 -27 0
-47 33 -60 101 -11 53 -8 89 9 89 4 0 19 17 33 39 56 84 207 155 387 181 84
12 86 12 252 122 92 60 186 116 210 123 61 19 361 19 471 0z m-914 -455 c70
-20 121 -90 121 -165 0 -56 -17 -92 -64 -132 -106 -94 -276 -14 -276 130 0
119 106 200 219 167z m1317 -20 c112 -70 101 -241 -18 -299 -54 -26 -90 -26
-143 -2 -104 47 -137 169 -69 258 55 72 153 90 230 43z"/>
<path d="M1195 820 c-85 -12 -154 -42 -256 -111 -99 -68 -117 -85 -102 -100 6
-6 126 -8 314 -7 l304 3 3 106 3 106 -68 6 c-80 8 -117 7 -198 -3z m223 -105
l-3 -66 -243 -2 c-133 -1 -242 -1 -242 1 0 6 137 89 165 100 52 21 117 30 223
31 l103 1 -3 -65z"/>
<path d="M1537 793 c-10 -9 -8 -165 1 -181 12 -18 333 -13 340 6 6 19 -70 88
-131 118 -97 50 -192 76 -210 57z m158 -82 c60 -28 130 -79 92 -67 -10 3 -61
6 -113 6 l-94 0 0 51 c0 51 0 51 28 45 15 -4 54 -20 87 -35z"/>
<path d="M1321 517 c-20 -24 11 -38 76 -35 50 3 58 6 58 23 0 17 -8 20 -61 23
-43 2 -64 -1 -73 -11z"/>
<path d="M318 460 c-31 -32 -34 -56 -7 -73 34 -21 106 58 84 92 -12 20 -46 11
-77 -19z"/>
<path d="M545 326 c-32 -32 -40 -69 -25 -107 17 -39 46 -59 90 -59 44 0 73 20
90 59 15 38 7 75 -25 107 -33 33 -97 33 -130 0z m93 -32 c26 -18 28 -50 5 -76
-20 -22 -41 -23 -65 -1 -22 20 -23 51 -1 75 20 22 32 23 61 2z"/>
<path d="M1818 323 c-40 -43 -41 -97 -2 -137 59 -58 164 -14 164 69 0 84 -105
128 -162 68z m94 -25 c31 -24 27 -74 -7 -90 -55 -25 -103 52 -53 86 27 19 39
20 60 4z"/>
</g>
</svg>
