<?xml version="1.0" standalone="no"?>
<!DOCTYPE svg PUBLIC "-//W3C//DTD SVG 20010904//EN"
 "http://www.w3.org/TR/2001/REC-SVG-20010904/DTD/svg10.dtd">
<svg version="1.0" xmlns="http://www.w3.org/2000/svg"
 width="124.000000pt" height="123.000000pt" viewBox="0 0 124.000000 123.000000"
 preserveAspectRatio="xMidYMid meet">

<g transform="translate(0.000000,123.000000) scale(0.100000,-0.100000)"
fill="#000000" stroke="none">
<path d="M560 1182 c-43 -21 -80 -75 -80 -116 0 -60 -44 -73 -106 -31 -71 48
-166 23 -207 -55 -24 -46 -17 -100 19 -151 36 -53 25 -84 -36 -92 -22 -3 -52
-13 -66 -22 -61 -40 -82 -130 -44 -192 23 -38 48 -53 115 -68 43 -10 50 -15
53 -38 2 -18 -5 -38 -22 -58 -50 -59 -27 -168 43 -204 46 -23 110 -19 153 10
61 41 89 32 102 -34 17 -92 97 -146 178 -122 52 16 96 61 104 109 3 20 8 45
10 54 7 24 42 33 62 15 100 -87 238 -42 250 83 4 42 0 56 -22 90 -41 63 -31
100 29 100 37 0 88 30 111 66 23 35 23 113 0 148 -23 36 -74 66 -113 66 -34 0
-63 22 -63 46 0 9 12 32 28 51 69 92 2 226 -112 226 -33 0 -56 -7 -85 -27 -58
-40 -87 -31 -97 30 -8 53 -44 101 -91 120 -43 18 -71 18 -113 -4z m96 -77 c13
-9 24 -31 28 -56 9 -56 21 -76 59 -99 44 -27 96 -25 141 5 46 32 90 33 110 3
22 -31 20 -46 -10 -85 -33 -43 -40 -89 -21 -135 19 -45 49 -65 111 -77 58 -11
69 -21 69 -62 0 -36 -24 -59 -61 -59 -46 0 -90 -30 -112 -75 -24 -50 -20 -83
16 -132 30 -40 31 -77 2 -97 -31 -22 -47 -20 -90 9 -21 14 -50 28 -66 31 -66
13 -142 -52 -142 -123 0 -32 -37 -73 -67 -73 -23 0 -63 47 -63 76 0 94 -118
146 -202 89 -89 -61 -153 2 -93 91 59 88 13 186 -94 200 -55 7 -71 22 -71 68
0 31 34 56 76 56 39 0 82 33 100 76 21 49 17 76 -16 125 -35 52 -37 72 -10 99
27 27 57 25 104 -7 90 -63 206 -6 206 102 0 29 32 65 58 65 10 0 27 -7 38 -15z"/>
<path d="M532 769 c-58 -29 -94 -85 -100 -154 -19 -232 317 -285 377 -59 42
158 -127 287 -277 213z m155 -79 c63 -38 63 -142 0 -180 -51 -32 -103 -26
-143 14 -28 28 -34 42 -34 76 0 34 6 48 34 76 40 40 92 46 143 14z"/>
</g>
</svg>
