<?xml version="1.0" standalone="no"?>
<!DOCTYPE svg PUBLIC "-//W3C//DTD SVG 20010904//EN"
 "http://www.w3.org/TR/2001/REC-SVG-20010904/DTD/svg10.dtd">
<svg version="1.0" xmlns="http://www.w3.org/2000/svg"
 width="160.000000pt" height="160.000000pt" viewBox="0 0 160.000000 160.000000"
 preserveAspectRatio="xMidYMid meet">

<g transform="translate(0.000000,160.000000) scale(0.100000,-0.100000)"
fill="#000000" stroke="none">
<path d="M129 1401 c-40 -40 -40 -89 0 -133 24 -27 36 -33 71 -33 35 0 47 6
71 33 40 44 40 93 0 133 -23 23 -38 29 -71 29 -33 0 -48 -6 -71 -29z"/>
<path d="M422 1377 c-26 -27 -28 -54 -6 -85 l15 -22 533 0 c504 0 534 1 549
18 25 27 22 78 -5 96 -20 14 -88 16 -543 16 l-522 0 -21 -23z"/>
<path d="M134 1066 c-46 -46 -46 -86 0 -132 24 -25 43 -34 66 -34 44 0 100 56
100 100 0 44 -56 100 -100 100 -23 0 -41 -9 -66 -34z"/>
<path d="M426 1049 c-35 -28 -35 -70 0 -98 26 -20 38 -21 339 -21 301 0 313 1
339 21 17 13 26 30 26 49 0 19 -9 36 -26 49 -26 20 -38 21 -339 21 -301 0
-313 -1 -339 -21z"/>
<path d="M134 666 c-46 -46 -46 -86 0 -132 46 -46 86 -46 132 0 25 25 34 43
34 66 0 44 -56 100 -100 100 -23 0 -41 -9 -66 -34z"/>
<path d="M426 649 c-35 -28 -35 -70 0 -98 26 -21 36 -21 539 -21 503 0 513 0
539 21 35 28 35 70 0 98 -26 21 -36 21 -539 21 -503 0 -513 0 -539 -21z"/>
<path d="M164 361 c-65 -28 -84 -113 -35 -162 91 -91 230 36 144 131 -30 32
-75 45 -109 31z"/>
<path d="M416 308 c-22 -32 -20 -61 7 -86 23 -22 29 -22 343 -22 358 0 364 1
364 64 0 66 1 66 -368 66 -331 0 -331 0 -346 -22z"/>
</g>
</svg>
