<?xml version="1.0" standalone="no"?>
<!DOCTYPE svg PUBLIC "-//W3C//DTD SVG 20010904//EN"
 "http://www.w3.org/TR/2001/REC-SVG-20010904/DTD/svg10.dtd">
<svg version="1.0" xmlns="http://www.w3.org/2000/svg"
 width="136.000000pt" height="136.000000pt" viewBox="0 0 136.000000 136.000000"
 preserveAspectRatio="xMidYMid meet">

<g transform="translate(0.000000,136.000000) scale(0.100000,-0.100000)"
fill="#000000" stroke="none">
<path d="M575 1235 c-293 -54 -498 -337 -455 -629 15 -104 49 -186 109 -265
188 -250 540 -301 790 -112 250 188 300 541 112 790 -88 118 -226 200 -369
221 -83 12 -99 11 -187 -5z m151 -300 c32 -49 -22 -104 -74 -76 -29 16 -37 48
-18 76 23 34 70 34 92 0z m-9 -217 c22 -21 23 -27 23 -180 0 -145 -2 -160 -20
-178 -11 -11 -29 -20 -40 -20 -11 0 -29 9 -40 20 -18 18 -20 33 -20 177 0 147
1 158 22 180 27 29 45 29 75 1z"/>
</g>
</svg>
