<?xml version="1.0" standalone="no"?>
<!DOCTYPE svg PUBLIC "-//W3C//DTD SVG 20010904//EN"
 "http://www.w3.org/TR/2001/REC-SVG-20010904/DTD/svg10.dtd">
<svg version="1.0" xmlns="http://www.w3.org/2000/svg"
 width="272.000000pt" height="200.000000pt" viewBox="0 0 272.000000 200.000000"
 preserveAspectRatio="xMidYMid meet">

<g transform="translate(0.000000,200.000000) scale(0.100000,-0.100000)"
fill="#000000" stroke="none">
<path d="M1300 1974 c-25 -8 -216 -63 -424 -122 -445 -126 -428 -116 -395
-222 11 -36 26 -81 33 -100 7 -20 11 -41 8 -48 -3 -10 -57 -12 -235 -12 -128
0 -238 1 -244 0 -29 0 -9 -31 71 -108 l84 -82 261 0 c254 0 261 1 261 20 0 11
-19 80 -41 152 -46 149 -51 177 -29 189 29 16 718 209 747 209 36 -1 740 -203
755 -218 7 -7 0 -50 -27 -149 -21 -76 -42 -146 -47 -157 -19 -35 3 -39 234
-37 l223 1 68 68 c68 66 93 99 84 108 -3 3 -96 6 -208 7 l-204 2 1 25 c1 14
13 63 28 110 25 83 25 86 7 110 -12 16 -38 31 -77 41 -89 25 -692 197 -750
214 -62 18 -124 18 -184 -1z"/>
<path d="M1024 1513 c-12 -38 -77 -213 -115 -311 -22 -57 -38 -109 -36 -115 7
-18 217 -14 228 4 12 19 11 46 -2 70 -7 15 -20 20 -42 19 -50 -3 -57 -1 -57
15 0 38 26 96 41 93 9 -2 51 -46 95 -98 115 -138 116 -140 134 -140 40 0 100
96 71 114 -9 6 -220 276 -260 334 -25 35 -49 42 -57 15z"/>
<path d="M1397 1522 c-2 -4 -4 -104 -3 -222 1 -217 1 -217 35 -211 4 0 14 35
22 76 10 60 16 75 31 75 9 0 24 -12 32 -27 9 -16 29 -44 45 -63 l30 -35 64 64
c36 35 71 61 78 59 9 -3 14 -31 16 -89 4 -104 13 -115 70 -93 47 19 57 34 43
67 -12 28 -90 358 -90 381 0 29 -31 14 -54 -25 -88 -150 -113 -188 -126 -189
-8 0 -22 11 -30 25 -8 13 -42 65 -75 114 -57 85 -80 109 -88 93z"/>
<path d="M274 1181 c-10 -11 -2 -34 28 -76 17 -25 35 -45 40 -45 100 -6 433 1
440 8 11 11 -7 77 -27 100 -9 10 -69 13 -244 15 -128 1 -235 0 -237 -2z"/>
<path d="M2050 1170 c-20 -18 -44 -86 -35 -100 4 -6 86 -10 215 -10 l209 0 36
52 c20 30 31 56 26 61 -5 5 -105 10 -222 10 -177 2 -216 -1 -229 -13z"/>
<path d="M1220 1013 c-1 -8 -1 -411 0 -425 0 -15 38 -8 44 8 3 9 9 40 12 70 7
54 21 79 39 66 6 -4 28 -31 50 -59 21 -29 45 -53 53 -53 7 0 36 25 65 55 73
78 83 75 91 -32 3 -48 11 -92 15 -96 12 -12 53 -2 81 21 l22 18 -45 184 c-25
102 -47 196 -49 210 -7 53 -33 33 -98 -77 -36 -59 -69 -111 -74 -115 -15 -10
-30 0 -53 40 -69 114 -152 214 -153 185z"/>
<path d="M392 984 c-12 -9 -9 -19 24 -65 20 -30 41 -58 45 -63 11 -13 368 -11
380 1 7 7 4 30 -9 69 l-19 59 -203 5 c-137 3 -208 1 -218 -6z"/>
<path d="M2184 993 c-129 -3 -185 -7 -191 -16 -5 -6 -15 -31 -21 -53 -23 -79
-33 -74 163 -74 195 0 177 -6 234 80 22 33 27 48 19 57 -6 7 -13 12 -17 11 -3
-2 -88 -4 -187 -5z"/>
<path d="M483 756 c-3 -4 24 -38 60 -74 l66 -66 116 3 c137 3 86 42 383 -296
117 -133 224 -251 238 -262 58 -46 84 -27 310 224 50 55 138 152 196 215 l105
115 69 2 c38 0 74 2 81 2 15 1 128 119 128 134 0 13 -333 14 -344 1 -36 -41
-394 -439 -426 -472 -22 -24 -41 -48 -43 -53 -7 -18 -39 -9 -63 18 -13 16
-120 137 -238 271 -117 133 -216 242 -219 242 -76 6 -415 3 -419 -4z"/>
</g>
</svg>
